<svg id="visual" viewBox="0 0 900 450" width="900" height="450" xmlns="http://www.w3.org/2000/svg" xmlns:xlink="http://www.w3.org/1999/xlink" version="1.1"><path d="M0 244L13.7 237.3C27.3 230.7 54.7 217.3 82 188.2C109.3 159 136.7 114 163.8 119.2C191 124.3 218 179.7 245.2 189.3C272.3 199 299.7 163 327 148C354.3 133 381.7 139 409 163C436.3 187 463.7 229 491 253C518.3 277 545.7 283 573 268.8C600.3 254.7 627.7 220.3 654.8 197.8C682 175.3 709 164.7 736.2 169.8C763.3 175 790.7 196 818 198.3C845.3 200.7 872.7 184.3 886.3 176.2L900 168L900 0L886.3 0C872.7 0 845.3 0 818 0C790.7 0 763.3 0 736.2 0C709 0 682 0 654.8 0C627.7 0 600.3 0 573 0C545.7 0 518.3 0 491 0C463.7 0 436.3 0 409 0C381.7 0 354.3 0 327 0C299.7 0 272.3 0 245.2 0C218 0 191 0 163.8 0C136.7 0 109.3 0 82 0C54.7 0 27.3 0 13.7 0L0 0Z" fill="#3e414a"></path><path d="M0 384L13.7 373.5C27.3 363 54.7 342 82 309.7C109.3 277.3 136.7 233.7 163.8 242.7C191 251.7 218 313.3 245.2 326.2C272.3 339 299.7 303 327 290.2C354.3 277.3 381.7 287.7 409 299.7C436.3 311.7 463.7 325.3 491 333.7C518.3 342 545.7 345 573 343.5C600.3 342 627.7 336 654.8 320.2C682 304.3 709 278.7 736.2 271.8C763.3 265 790.7 277 818 280.8C845.3 284.7 872.7 280.3 886.3 278.2L900 276L900 166L886.3 174.2C872.7 182.3 845.3 198.7 818 196.3C790.7 194 763.3 173 736.2 167.8C709 162.7 682 173.3 654.8 195.8C627.7 218.3 600.3 252.7 573 266.8C545.7 281 518.3 275 491 251C463.7 227 436.3 185 409 161C381.7 137 354.3 131 327 146C299.7 161 272.3 197 245.2 187.3C218 177.7 191 122.3 163.8 117.2C136.7 112 109.3 157 82 186.2C54.7 215.3 27.3 228.7 13.7 235.3L0 242Z" fill="#1d1f24"></path><path d="M0 451L13.7 451C27.3 451 54.7 451 82 451C109.3 451 136.7 451 163.8 451C191 451 218 451 245.2 451C272.3 451 299.7 451 327 451C354.3 451 381.7 451 409 451C436.3 451 463.7 451 491 451C518.3 451 545.7 451 573 451C600.3 451 627.7 451 654.8 451C682 451 709 451 736.2 451C763.3 451 790.7 451 818 451C845.3 451 872.7 451 886.3 451L900 451L900 274L886.3 276.2C872.7 278.3 845.3 282.7 818 278.8C790.7 275 763.3 263 736.2 269.8C709 276.7 682 302.3 654.8 318.2C627.7 334 600.3 340 573 341.5C545.7 343 518.3 340 491 331.7C463.7 323.3 436.3 309.7 409 297.7C381.7 285.7 354.3 275.3 327 288.2C299.7 301 272.3 337 245.2 324.2C218 311.3 191 249.7 163.8 240.7C136.7 231.7 109.3 275.3 82 307.7C54.7 340 27.3 361 13.7 371.5L0 382Z" fill="#17191c"></path></svg>